<?xml version="1.0" encoding="utf-8"?>
<!-- Generator: Adobe Illustrator 25.1.0, SVG Export Plug-In . SVG Version: 6.00 Build 0)  -->
<svg version="1.1" xmlns="http://www.w3.org/2000/svg" xmlns:xlink="http://www.w3.org/1999/xlink" x="0px" y="0px"
	 viewBox="0 0 209.8 111.3" style="enable-background:new 0 0 209.8 111.3;" xml:space="preserve">
<style type="text/css">
	.st0{fill:#041E42;}
	.st1{fill:#0047BB;}
</style>
<g id="xdh">
</g>
<g id="Layer_1">
	<g>
		<g>
			<path class="st0" d="M101.3,41.7c-1.7-4.3-4.4-7.8-8-10.4c-3.6-2.6-8.1-4-13.3-4c-3.1,0-5.9,0.4-8.1,1.2c-2,0.7-4.1,1.8-6.3,3.3
				V5.2L54,0v80.5l0.3,0.1c6.7,2.7,13.6,4,20.5,4c5.7,0,10.7-1.1,15.1-3.4c4.4-2.3,7.9-5.6,10.3-10c2.4-4.4,3.7-9.7,3.7-15.8
				C103.9,50.5,103.1,46,101.3,41.7z M92.2,55.8c0,5-1.4,9.2-4.3,12.7c-2.8,3.4-6.7,5.1-11.7,5.1c-3.5,0-7.1-0.5-10.6-1.6V43.2
				c4-3.4,7.9-5.2,11.7-5.2c3,0,5.7,0.8,8,2.3c2.2,1.5,4,3.7,5.1,6.4C91.6,49.4,92.2,52.5,92.2,55.8z"/>
			<path class="st0" d="M110.6,90.9c0,2.6-0.7,5-1.9,7c-1.3,2-3.2,3.5-5.7,4.5l-0.7,0.3l8.6,8.5l0.3-0.2c7.4-3.5,11.1-10,11.1-19.3
				V28.3h-11.7V90.9z"/>
			<path class="st0" d="M121.1,7.3c-1.3-1.2-3-1.7-4.8-1.7c-1.9,0-3.5,0.7-4.8,2.1c-1.2,1.4-1.9,2.9-1.9,4.7c0,1.9,0.7,3.6,2.1,4.9
				c1.4,1.3,3,1.9,4.8,1.9c1.8,0,3.4-0.6,4.7-1.8c1.3-1.2,2-2.9,2-5C123.1,10.1,122.4,8.4,121.1,7.3z"/>
			<path class="st0" d="M155.3,52.3l-6.4-3.6c-2-1.1-3.7-2.3-5-3.4c-1.2-1.1-1.8-2.2-1.8-3.5c0-1.5,0.6-2.6,2-3.3
				c1.4-0.7,3-1.1,4.6-1.1c3.7,0,8.7,1.9,15,5.7l0.8,0.5V31.9l-0.3-0.1c-3-1.5-5.7-2.6-8-3.3c-2.3-0.7-5.1-1.1-8.4-1.1
				c-5,0-9.2,1.3-12.7,3.8c-3.5,2.5-5.2,6.2-5.2,10.7c0,3.3,0.9,6.2,2.8,8.7c1.8,2.5,4.8,5,8.8,7.3l6.6,3.8c1.7,1,3,1.8,4,2.5
				c0.9,0.7,1.7,1.4,2.2,2.3c0.5,0.8,0.8,1.7,0.8,2.7c0,1.5-0.8,2.7-2.5,3.7c-1.7,1-3.5,1.5-5.2,1.5c-1.7,0-4.3-0.7-7.5-2.1
				c-3.3-1.4-6.5-3-9.4-5l-0.8-0.5v12.8l0.3,0.1c0.7,0.3,1.9,0.8,3.8,1.6c1.9,0.8,3.5,1.4,4.7,1.8c1.2,0.4,2.7,0.7,4.3,1
				c1.6,0.3,3.4,0.4,5.3,0.4c5.3,0,9.9-1.4,13.6-4.2c3.7-2.8,5.6-6.7,5.6-11.7C167.3,62.4,163.3,56.9,155.3,52.3z"/>
			<path class="st0" d="M197.8,52.3l-6.4-3.6c-2-1.1-3.7-2.3-5-3.4c-1.2-1.1-1.8-2.2-1.8-3.5c0-1.5,0.6-2.6,2-3.3
				c1.4-0.7,3-1.1,4.6-1.1c3.7,0,8.7,1.9,15,5.7l0.8,0.5V31.9l-0.3-0.1c-3-1.5-5.7-2.6-8-3.3c-2.3-0.7-5.1-1.1-8.4-1.1
				c-5,0-9.2,1.3-12.7,3.8c-3.5,2.5-5.2,6.2-5.2,10.7c0,3.3,0.9,6.2,2.8,8.7c1.8,2.5,4.8,5,8.8,7.3l6.6,3.8c1.7,1,3,1.8,4,2.5
				c0.9,0.7,1.7,1.4,2.2,2.3c0.5,0.8,0.8,1.7,0.8,2.7c0,1.5-0.8,2.7-2.5,3.7c-1.7,1-3.5,1.5-5.2,1.5c-1.7,0-4.3-0.7-7.5-2.1
				c-3.3-1.4-6.5-3-9.4-5l-0.8-0.5v12.8l0.3,0.1c0.7,0.3,1.9,0.8,3.8,1.6c1.9,0.8,3.5,1.4,4.7,1.8c1.2,0.4,2.7,0.7,4.3,1
				c1.6,0.3,3.4,0.4,5.3,0.4c5.3,0,9.9-1.4,13.6-4.2c3.7-2.8,5.6-6.7,5.6-11.7C209.8,62.4,205.7,56.9,197.8,52.3z"/>
		</g>
		<g>
			<path class="st1" d="M42.8,19c0-4.2,1-11.6,1.3-13.8l0.1-0.4L33.6,0.1l-0.1,0.6c-1.5,6.2-2.3,12.4-2.3,18.4
				c0,5.9,0.8,12,2.3,18.2l0.1,0.6L44.2,33l-0.1-0.4C43.3,28,42.8,23.5,42.8,19z"/>
			<path class="st1" d="M28.7,4.9L18,0.1l-0.1,0.6c-1.5,6.2-2.3,12.4-2.3,18.4c0,5.9,0.8,12,2.3,18.2l0.1,0.6L28.6,33l-0.1-0.4
				c-0.9-4.6-1.3-9.2-1.3-13.6c0-4.2,1-11.6,1.3-13.8L28.7,4.9z"/>
			<path class="st1" d="M13.1,4.9L2.5,0.1L2.3,0.6C0.8,6.9,0,13.1,0,19c0,5.9,0.8,12,2.3,18.2l0.1,0.6L13.1,33L13,32.6
				c-0.9-4.6-1.3-9.2-1.3-13.6c0-4.2,1-11.6,1.3-13.8L13.1,4.9z"/>
		</g>
	</g>
</g>
</svg>
